# xmcd CD database file
#
# Track frame offsets:
#	150
#	15360
#	32928
#	48082
#	60763
#	73369
#	88161
#	100343
#	111183
#	122872
#	133182
#	147555
#	161390
#	174740
#
# Disc length: 2446 seconds
#
# Revision: 4
# Processed by: cddbd v1.5.2PL0 Copyright (c) Steve Scherf et al.
# Submitted via: CDex 2.21
#
DISCID=c5098c0e
DTITLE=Divas of Jazz - Divas of Jazz - Vol. 2
DYEAR=2007
DGENRE=Jazz
TTITLE0=Dinah Washington - Smoke Gets in Your Eyes
TTITLE1=Ella Fitzgerald - Love for Sale
TTITLE2=Sarah Vaughan - The Nearness of You
TTITLE3=Doris Day - Stardust
TTITLE4=Pearl Bailey - Let There Be Love
TTITLE5=Dorothy Squires - (I Love You) For Sentimental Reasons
TTITLE6=Dinah Washington - Unforgetable
TTITLE7=Camelia Todorova - Ain't Nobody Business If I Do
TTITLE8=June Christy - Shoo Fly Pie and Apple Pan Dowdy
TTITLE9=Ella Fitzgerald - Lullaby of Birdland
TTITLE10=Nellie Lutcher - Fine and Mellow
TTITLE11=Sarah Vaughan - Street of Dreams
TTITLE12=Ella Fitzgerald - Tenderly
TTITLE13=Rosemary Clooney - Come on a My House
EXTD=YEAR: 2007
EXTT0=
EXTT1=
EXTT2=
EXTT3=
EXTT4=
EXTT5=
EXTT6=
EXTT7=
EXTT8=
EXTT9=
EXTT10=
EXTT11=
EXTT12=
EXTT13=
PLAYORDER=
